<svg width="100" height="100" viewBox="0 0 100 100" fill="none" xmlns="http://www.w3.org/2000/svg">
<g clip-path="url(#clip0_421_39)">
<path d="M65.2923 77.125V71.2083C65.2923 68.0699 64.0456 65.0601 61.8264 62.8409C59.6072 60.6217 56.5974 59.375 53.459 59.375H29.7923C26.6539 59.375 23.6441 60.6217 21.4249 62.8409C19.2057 65.0601 17.959 68.0699 17.959 71.2083V77.125M83.0423 77.125V71.2083C83.0404 68.5864 82.1677 66.0394 80.5614 63.9673C78.955 61.8951 76.7059 60.4151 74.1673 59.7596M62.334 24.2596C64.8794 24.9113 67.1355 26.3917 68.7466 28.4673C70.3577 30.5428 71.2322 33.0956 71.2322 35.7231C71.2322 38.3506 70.3577 40.9034 68.7466 42.979C67.1355 45.0546 64.8794 46.5349 62.334 47.1867M53.459 35.7083C53.459 42.2437 48.161 47.5417 41.6256 47.5417C35.0903 47.5417 29.7923 42.2437 29.7923 35.7083C29.7923 29.173 35.0903 23.875 41.6256 23.875C48.161 23.875 53.459 29.173 53.459 35.7083Z" stroke="url(#paint0_linear_421_39)" stroke-width="6" stroke-linecap="round" stroke-linejoin="round"/>
</g>
<defs>
<linearGradient id="paint0_linear_421_39" x1="67.3404" y1="11.8141" x2="23.193" y2="65.9744" gradientUnits="userSpaceOnUse">
<stop stop-color="#FF913B"/>
<stop offset="1" stop-color="white"/>
</linearGradient>
<clipPath id="clip0_421_39">
<rect width="71" height="71" fill="white" transform="translate(15 15)"/>
</clipPath>
</defs>
</svg>
