<svg width="100" height="100" viewBox="0 0 100 100" fill="none" xmlns="http://www.w3.org/2000/svg">
<path d="M56.6972 52.9398C56.6972 49.3537 53.699 46.4463 50 46.4463C46.3014 46.4463 43.3028 49.3537 43.3028 52.9398C43.3028 56.5262 46.3014 59.4335 50 59.4335C53.699 59.4335 56.6972 56.5262 56.6972 52.9398Z" fill="url(#paint0_linear_433_18)"/>
<path fill-rule="evenodd" clip-rule="evenodd" d="M71.7509 40.8843C73.1653 35.312 74.9431 24.9787 68.676 21.4754C62.4383 17.9874 54.3211 24.6711 50.0349 28.683C45.7611 24.711 37.4159 18.0559 31.1541 21.5703C24.9188 25.0701 26.8416 35.232 28.2873 40.8392C22.4708 42.441 12.5 45.891 12.5 52.9398C12.5 59.9685 22.4604 63.722 28.2424 65.3222C26.7914 70.9605 24.9649 80.9773 31.2082 84.4691C37.4932 87.9829 45.8126 81.4863 50.1384 77.4305C54.4522 81.466 62.4915 88.0052 68.7304 84.5036C74.9891 80.9908 73.3589 70.796 71.9132 65.1562C77.5182 63.5525 87.5 59.8808 87.5 52.9398C87.5 45.9587 77.4758 42.4807 71.7509 40.8843ZM71.0406 62.1674C70.0913 59.2539 68.8101 56.1557 67.2427 52.9552C68.7387 49.8303 69.9701 46.772 70.8929 43.8772C75.0897 45.0569 84.2963 47.7532 84.2963 52.9398C84.2963 58.1749 75.4616 60.8968 71.0406 62.1674ZM67.1249 81.8151C62.4701 84.4275 55.5554 78.1741 52.3696 75.2022C54.483 72.961 56.595 70.3556 58.6562 67.4624C62.2821 67.1505 65.7076 66.6404 68.8141 65.9443C69.8316 69.9335 71.8006 79.1907 67.1249 81.8151ZM32.809 81.7777C28.1536 79.1751 30.2814 70.2366 31.3489 66.0834C34.4209 66.7421 37.8214 67.2162 41.456 67.502C43.5308 70.333 45.7039 72.9353 47.894 75.2141C45.1881 77.7519 37.4863 84.3925 32.809 81.7777ZM15.7037 52.9398C15.7037 47.6849 24.8552 45.0083 29.1476 43.8315C30.0863 46.7913 31.3174 49.886 32.8031 53.0154C31.2981 56.1915 30.0494 59.3354 29.1021 62.3299C25.0092 61.1941 15.7037 58.1979 15.7037 52.9398ZM32.7593 24.2589C37.4338 21.6354 44.6868 28.0246 47.7897 30.9003C45.611 33.1689 43.4578 35.7515 41.4009 38.5662C37.8735 38.8832 34.4969 39.3923 31.3927 40.0742C30.2281 35.5518 28.0898 26.8795 32.7593 24.2589ZM60.9481 41.9427C63.3413 42.2356 65.6339 42.625 67.7868 43.1016C67.1405 45.1101 66.3349 47.2103 65.3863 49.3633C64.011 46.8332 62.5347 44.354 60.9481 41.9427ZM50.0358 33.1203C51.5136 34.6724 52.9936 36.4058 54.4494 38.2862C51.4963 38.1509 48.5383 38.1502 45.5851 38.2842C47.0422 36.4212 48.5349 34.6904 50.0358 33.1203ZM34.6413 49.3611C33.7082 47.2155 32.9099 45.1059 32.2581 43.0688C34.398 42.6044 36.6799 42.225 39.0575 41.9369C37.4665 44.3429 35.9927 46.8212 34.6413 49.3611ZM39.1259 64.1643C36.6696 63.8985 34.3531 63.5384 32.2139 63.0869C32.8761 61.0137 33.692 58.8587 34.6449 56.6671C36.0151 59.2332 37.5112 61.7356 39.1259 64.1643ZM50.1245 72.9787C48.6059 71.3899 47.0914 69.6327 45.612 67.7427C48.5821 67.8558 51.5579 67.8561 54.5274 67.7276C53.067 69.6521 51.5922 71.4118 50.1245 72.9787ZM65.4168 56.5555C66.4192 58.7709 67.2643 60.9142 67.9355 62.9523C65.7607 63.4335 63.413 63.8209 60.9392 64.1086C62.5376 61.6518 64.0371 59.134 65.4168 56.5555ZM56.8681 64.4852C52.3253 64.7999 47.7539 64.7966 43.2095 64.5109C40.6272 60.8536 38.3286 57.0074 36.3444 53.0144C38.3189 49.0297 40.6009 45.1911 43.171 41.5395C47.7189 41.2062 52.2946 41.2054 56.8423 41.5414C59.3902 45.1928 61.6688 49.0215 63.6892 52.9703C61.6927 56.9531 59.3988 60.7995 56.8681 64.4852ZM67.0758 24.1665C71.7515 26.7813 69.6702 36.0682 68.6488 40.1064C65.5373 39.4103 62.1583 38.8922 58.6207 38.5703C56.5598 35.7251 54.4245 33.138 52.281 30.8987C55.4238 27.961 62.4452 21.5772 67.0758 24.1665Z" fill="url(#paint1_linear_433_18)"/>
<defs>
<linearGradient id="paint0_linear_433_18" x1="45.6757" y1="42.1892" x2="24.0541" y2="73" gradientUnits="userSpaceOnUse">
<stop stop-color="white"/>
<stop offset="1" stop-color="#FF913B"/>
</linearGradient>
<linearGradient id="paint1_linear_433_18" x1="45.6757" y1="42.1892" x2="24.0541" y2="73" gradientUnits="userSpaceOnUse">
<stop stop-color="white"/>
<stop offset="1" stop-color="#FF913B"/>
</linearGradient>
</defs>
</svg>
