<svg width="100" height="100" viewBox="0 0 100 100" fill="none" xmlns="http://www.w3.org/2000/svg">
<rect x="15" y="30" width="69" height="49.5" rx="3" stroke="url(#paint0_linear_433_456)" stroke-width="7" stroke-linecap="round" stroke-linejoin="round"/>
<path d="M36 30V79.5" stroke="url(#paint1_linear_433_456)" stroke-width="4" stroke-linecap="round" stroke-linejoin="bevel"/>
<circle cx="25.5" cy="40.5" r="4.5" stroke="url(#paint2_linear_433_456)" stroke-width="4" stroke-linecap="round" stroke-linejoin="bevel"/>
<path d="M22.5 60H28.5" stroke="url(#paint3_linear_433_456)" stroke-width="4" stroke-linecap="round" stroke-linejoin="bevel"/>
<path d="M22.5 66H28.5" stroke="url(#paint4_linear_433_456)" stroke-width="4" stroke-linecap="round" stroke-linejoin="bevel"/>
<path d="M22.5 72H28.5" stroke="url(#paint5_linear_433_456)" stroke-width="4" stroke-linecap="round" stroke-linejoin="bevel"/>
<path d="M35.6442 18.445C36.2921 18.1517 36.9951 18 37.7062 18L67 18C68.1046 18 69 18.8954 69 20V22C69 23.1046 68.1046 24 67 24H37.7062C36.9951 24 36.2921 23.8483 35.6442 23.555L30 21L35.6442 18.445Z" stroke="url(#paint6_linear_433_456)" stroke-width="4" stroke-linecap="round" stroke-linejoin="round"/>
<defs>
<linearGradient id="paint0_linear_433_456" x1="49.5" y1="30" x2="49.5" y2="79.5" gradientUnits="userSpaceOnUse">
<stop stop-color="#FF913B"/>
<stop offset="1" stop-color="white"/>
</linearGradient>
<linearGradient id="paint1_linear_433_456" x1="36.5" y1="30" x2="36.5" y2="79.5" gradientUnits="userSpaceOnUse">
<stop stop-color="#FF913B"/>
<stop offset="1" stop-color="white"/>
</linearGradient>
<linearGradient id="paint2_linear_433_456" x1="25.5" y1="36" x2="25.5" y2="45" gradientUnits="userSpaceOnUse">
<stop stop-color="#FF913B"/>
<stop offset="1" stop-color="white"/>
</linearGradient>
<linearGradient id="paint3_linear_433_456" x1="25.5" y1="60" x2="25.5" y2="61" gradientUnits="userSpaceOnUse">
<stop stop-color="#FF913B"/>
<stop offset="1" stop-color="white"/>
</linearGradient>
<linearGradient id="paint4_linear_433_456" x1="25.5" y1="66" x2="25.5" y2="67" gradientUnits="userSpaceOnUse">
<stop stop-color="#FF913B"/>
<stop offset="1" stop-color="white"/>
</linearGradient>
<linearGradient id="paint5_linear_433_456" x1="25.5" y1="72" x2="25.5" y2="73" gradientUnits="userSpaceOnUse">
<stop stop-color="#FF913B"/>
<stop offset="1" stop-color="white"/>
</linearGradient>
<linearGradient id="paint6_linear_433_456" x1="49.5" y1="18" x2="49.5" y2="24" gradientUnits="userSpaceOnUse">
<stop stop-color="#FF913B"/>
<stop offset="1" stop-color="white"/>
</linearGradient>
</defs>
</svg>
