<svg width="99" height="48" viewBox="0 0 99 48" fill="none" xmlns="http://www.w3.org/2000/svg">
<g clip-path="url(#clip0_391_65)">
<path d="M86.7442 13.4057C80.7436 13.4057 75.8606 18.3154 75.8606 24.351C75.8606 30.3866 80.7436 35.2962 86.7442 35.2962C92.7434 35.2962 97.625 30.3866 97.625 24.351C97.625 18.3154 92.7434 13.4057 86.7442 13.4057ZM86.7442 30.109C83.5883 30.109 81.018 27.5231 81.018 24.351C81.018 21.1774 83.5883 18.593 86.7442 18.593C89.8972 18.593 92.4689 21.1774 92.4689 24.351C92.4689 27.5245 89.8986 30.109 86.7428 30.109H86.7442ZM54.6958 22.1343L52.7927 21.1789C51.9664 20.7674 51.4484 20.4489 51.2401 20.2136C51.0415 20.005 50.9284 19.7294 50.9234 19.4413C50.9234 19.0721 51.0895 18.7607 51.416 18.5183C51.7398 18.2646 52.2001 18.1491 52.7842 18.1491C53.8526 18.1491 55.0364 18.7945 56.3398 20.0952L59.552 16.8639C58.7627 15.7879 57.7306 14.9139 56.5397 14.3132C55.3645 13.7213 54.066 13.4161 52.7504 13.4226C50.7896 13.4226 49.1709 14.0018 47.9097 15.1686C46.6499 16.3354 46.0164 17.7376 46.0164 19.3821C46.0164 21.9328 47.6845 24.0579 51.0317 25.7447L52.7842 26.6254C54.2946 27.3906 55.0462 28.1699 55.0462 28.976C55.0462 29.4128 54.8365 29.7905 54.4199 30.1259C54.0032 30.4627 53.4514 30.6219 52.7673 30.6219C52.1339 30.6219 51.4076 30.4035 50.5898 29.9596C49.7749 29.5228 49.0499 28.9357 48.453 28.2291L45.2577 31.7295C47.0595 34.097 49.4623 35.2892 52.483 35.2892C54.7535 35.2892 56.5651 34.6677 57.9079 33.4333C59.2592 32.2002 59.9349 30.6557 59.9349 28.8083C59.9349 27.423 59.5604 26.2069 58.8172 25.1739C58.067 24.141 56.6903 23.1348 54.6958 22.1357V22.1343ZM22.3827 32.9119V13.8411H17.2168V15.1179C15.4761 13.9978 13.45 13.4034 11.3808 13.4057C5.38159 13.4057 0.5 18.3154 0.5 24.351C0.5 30.3866 5.38159 35.2962 11.3822 35.2962C13.4266 35.2993 15.4297 34.7201 17.1576 33.6263C17.1576 33.794 17.1492 33.9448 17.1492 34.0463C17.1492 37.2184 14.5789 39.8043 11.4245 39.8043C10.3519 39.8018 9.30182 39.496 8.39528 38.9221L5.84047 43.4217C7.52511 44.4505 9.45957 44.9964 11.4329 45C17.4335 45 22.3827 40.0889 22.3827 34.0533C22.3827 33.8194 22.3982 33.1303 22.3827 32.9119ZM11.3822 30.1076C8.22918 30.1076 5.65748 27.5231 5.65748 24.351C5.65748 21.1774 8.22777 18.593 11.3822 18.593C14.5367 18.593 17.107 21.1774 17.107 24.351C17.107 27.5231 14.5367 30.109 11.3822 30.109V30.1076ZM42.9605 13.8341H37.7693V24.2396C37.7777 25.7179 37.7777 28.27 36.6938 29.3607C36.1758 29.8807 35.6086 30.3513 34.4149 30.3513C33.2128 30.3513 32.6456 29.8807 32.129 29.3607C31.0437 28.2685 31.0521 25.7094 31.0592 24.2396V13.8341H25.8693V24.2086C25.8524 26.3478 25.8271 30.3189 28.4312 32.9541C29.9584 34.4986 31.7785 35.2878 34.4065 35.2878C37.0359 35.2878 38.8545 34.5071 40.3818 32.9541C42.9859 30.3189 42.9605 26.3393 42.9436 24.2086L42.9605 13.8327V13.8341ZM72.3781 29.1775C71.9615 29.496 70.9508 30.202 69.8078 30.0427C68.8732 29.9159 68.1145 29.2282 67.9977 26.9284V18.2999H74.0982V13.8172H67.9977V8H62.8233V9.14145H62.8148V26.2492C62.8148 28.9689 63.4989 35.2878 69.7994 35.2878C72.9876 35.2385 74.9231 33.5009 75.7339 32.8217L75.8423 32.7371L72.7371 28.8928C72.7286 28.8999 72.5119 29.076 72.3781 29.1775Z" fill="#FF913B"/>
</g>
<defs>
<clipPath id="clip0_391_65">
<rect width="98" height="48" fill="white" transform="translate(0.5)"/>
</clipPath>
</defs>
</svg>
