<svg width="143" height="48" viewBox="0 0 143 48" fill="none" xmlns="http://www.w3.org/2000/svg">
<g clip-path="url(#clip0_391_49)">
<mask id="mask0_391_49" style="mask-type:luminance" maskUnits="userSpaceOnUse" x="0" y="0" width="143" height="48">
<path d="M142.5 0H0.5V48H142.5V0Z" fill="white"/>
</mask>
<g mask="url(#mask0_391_49)">
<path fill-rule="evenodd" clip-rule="evenodd" d="M2.9389 35.8519C-0.313008 32.6276 -0.312956 27.4 2.93899 24.1757L11.7714 15.4183C14.5205 12.6926 18.7134 12.271 21.909 14.1536C22.8976 14.7359 22.8889 16.0717 22.0759 16.8778C21.2629 17.6839 19.9358 17.6145 18.8323 17.2945C17.4192 16.8847 15.83 17.2323 14.7156 18.3374L5.88311 27.0947C4.25714 28.7069 4.25712 31.3207 5.88307 32.9329C7.50906 34.5451 10.1454 34.5451 11.7713 32.9329L29.436 15.4184C32.6881 12.194 37.9605 12.194 41.2125 15.4183L50.045 24.1757C53.297 27.3999 53.297 32.6276 50.045 35.8519C46.7931 39.0763 41.5206 39.0763 38.2686 35.8519L35.3245 32.9329L31.6443 36.5818C28.8952 39.3074 24.7023 39.729 21.5066 37.8464C20.5182 37.2641 20.5268 35.9283 21.3399 35.1222C22.1528 34.3161 23.4799 34.3854 24.5835 34.7055C25.9966 35.1153 27.5857 34.7676 28.7001 33.6626L32.4855 29.9095C34.0534 28.3549 36.5955 28.3549 38.1635 29.9095L41.2127 32.9329C42.8387 34.545 45.4749 34.545 47.1009 32.9329C48.7269 31.3207 48.7269 28.7069 47.1009 27.0947L38.2683 18.3375C36.6424 16.7253 34.0062 16.7253 32.3802 18.3375L14.7155 35.852C11.4634 39.0764 6.19087 39.0764 2.9389 35.8519Z" fill="#FF913B"/>
<path d="M85.7446 17.6797C83.6984 17.6797 82.1482 18.4124 81.1251 19.8778C80.226 18.4124 78.7998 17.6797 76.9086 17.6797C74.9554 17.6797 73.5292 18.3513 72.599 19.7252V18.1071H68.5996V33.3722H72.599V24.7932C72.599 22.5645 73.7461 21.3433 75.5134 21.3433C77.1566 21.3433 78.1177 22.4119 78.1177 24.2437V33.3722H82.1172V24.7932C82.1172 22.5645 83.1714 21.3433 85.0006 21.3433C86.6438 21.3433 87.6048 22.4119 87.6048 24.2437V33.3722H91.6043V23.9689C91.6043 20.1526 89.3101 17.6797 85.7446 17.6797Z" fill="#FF913B"/>
<path d="M106.472 19.9084C105.263 18.4124 103.588 17.6797 101.418 17.6797C99.3414 17.6797 97.5743 18.4735 96.0861 20.0305C94.6289 21.5875 93.8848 23.4804 93.8848 25.7397C93.8848 27.9989 94.6289 29.9223 96.0861 31.4794C97.5743 33.0364 99.3414 33.7997 101.418 33.7997C103.588 33.7997 105.263 33.0669 106.472 31.5709V33.3722H110.471V18.1071H106.472V19.9084ZM99.0934 28.8537C98.2873 28.0294 97.8842 26.9914 97.8842 25.7397C97.8842 24.4879 98.2873 23.4499 99.0934 22.6561C99.8995 21.8318 100.922 21.4349 102.162 21.4349C103.402 21.4349 104.426 21.8318 105.232 22.6561C106.069 23.4499 106.472 24.4879 106.472 25.7397C106.472 26.9914 106.069 28.0294 105.232 28.8537C104.426 29.6476 103.402 30.0444 102.162 30.0444C100.922 30.0444 99.8995 29.6476 99.0934 28.8537Z" fill="#FF913B"/>
<path d="M125.23 20.7325V18.1069H113.604V21.8011H119.835L113.293 30.7465V33.372H125.54V29.6779H118.657L125.23 20.7325Z" fill="#FF913B"/>
<path d="M142.263 27.3578C142.356 26.7777 142.418 26.2587 142.418 25.7397C142.418 23.4499 141.675 21.557 140.186 20C138.729 18.4429 136.837 17.6797 134.574 17.6797C132.187 17.6797 130.203 18.4429 128.683 20C127.164 21.5265 126.389 23.4499 126.389 25.7397C126.389 28.06 127.164 29.9834 128.715 31.5098C130.265 33.0364 132.311 33.7997 134.884 33.7997C137.86 33.7997 140.124 32.7005 141.643 30.5329L138.419 28.7011C137.643 29.7086 136.466 30.2276 134.946 30.2276C132.559 30.2276 131.102 29.2812 130.575 27.3578H142.263ZM130.513 24.3047C130.978 22.3508 132.435 21.2212 134.574 21.2212C136.403 21.2212 137.953 22.2287 138.419 24.3047H130.513Z" fill="#FF913B"/>
</g>
</g>
<defs>
<clipPath id="clip0_391_49">
<rect width="142" height="48" fill="white" transform="translate(0.5)"/>
</clipPath>
</defs>
</svg>
