<svg width="172" height="48" viewBox="0 0 172 48" fill="none" xmlns="http://www.w3.org/2000/svg">
<g clip-path="url(#clip0_391_59)">
<path d="M4.03117 35.0022C3.40366 35.0036 2.78704 34.8383 2.24429 34.5234C1.70154 34.2084 1.25212 33.7551 0.941951 33.2096C0.636525 32.6679 0.484201 32.0534 0.501296 31.4318C0.518391 30.8102 0.70426 30.205 1.039 29.681L7.40073 19.6909C7.72634 19.154 8.18862 18.7131 8.74036 18.4133C9.2921 18.1135 9.91353 17.9656 10.5412 17.9845C11.1683 17.9996 11.7802 18.1809 12.3143 18.5101C12.8483 18.8393 13.2853 19.3045 13.5805 19.858C14.1736 20.9794 14.0994 22.3286 13.3891 23.3812L7.03143 33.3713C6.70902 33.8737 6.26501 34.2866 5.74054 34.5717C5.21607 34.8568 4.62811 35.0048 4.03117 35.0022Z" fill="#FF913B"/>
<path d="M14.9427 35.0022C13.6596 35.0022 12.4789 34.3162 11.8589 33.2137C11.5541 32.6735 11.4022 32.0606 11.4193 31.4406C11.4364 30.8207 11.6219 30.217 11.9559 29.6945L18.3055 19.7273C18.6264 19.1829 19.087 18.7341 19.6397 18.4277C20.1923 18.1213 20.8169 17.9683 21.4487 17.9846C22.7426 18.0129 23.9152 18.7367 24.5082 19.8688C25.0972 21.001 25.011 22.3583 24.2791 23.4082L17.9308 33.3754C17.6094 33.8757 17.1672 34.2869 16.645 34.5712C16.1227 34.8556 15.5373 35.0038 14.9427 35.0022Z" fill="#FF913B"/>
<path d="M25.6112 35.0853C27.42 35.0853 28.8864 33.6497 28.8864 31.8788C28.8864 30.108 27.42 28.6724 25.6112 28.6724C23.8023 28.6724 22.3359 30.108 22.3359 31.8788C22.3359 33.6497 23.8023 35.0853 25.6112 35.0853Z" fill="#FF913B"/>
<path d="M167.896 28.8586C168.885 28.8586 169.477 29.5622 169.477 30.7145V34.6637H170.821V30.6242C170.821 28.6645 169.898 27.5283 168.162 27.5283C167.482 27.5283 166.404 27.7143 165.761 28.9637C165.612 28.5952 165.365 28.274 165.048 28.0343C164.731 27.7946 164.355 27.6454 163.959 27.6024C163.71 27.5568 163.457 27.5419 163.204 27.5579C162.652 27.6024 161.668 27.9461 161.3 28.7252V27.6779H159.955V34.6637H161.3V30.8938C161.3 29.4274 162.26 28.8586 163.221 28.8586C164.121 28.8586 164.713 29.5473 164.713 30.6997V34.6637H166.05V30.8938C166.05 29.7266 166.751 28.8451 167.896 28.8586ZM155.018 33.4965C155.632 33.5099 156.225 33.2646 156.655 32.8198C157.087 32.3751 157.316 31.7699 157.293 31.1485C157.293 29.7414 156.258 28.8586 155.018 28.8586C153.776 28.8586 152.743 29.7414 152.743 31.1485C152.718 31.7685 152.947 32.3724 153.376 32.8158C153.805 33.2606 154.395 33.5072 155.007 33.4965H155.018ZM155.018 34.8065C153.053 34.8065 151.412 33.3549 151.412 31.1405C151.412 28.926 153.053 27.5202 155.018 27.5202C156.983 27.5202 158.637 28.926 158.637 31.1405C158.637 33.3549 156.973 34.8133 155.008 34.8133L155.018 34.8065ZM144.491 31.1405L144.478 31.1485C144.478 28.9341 146.161 27.5283 148.14 27.5202C148.637 27.5106 149.13 27.6054 149.588 27.7986C150.046 27.9918 150.459 28.279 150.799 28.6416L149.78 29.5096C149.564 29.2971 149.307 29.1295 149.026 29.0166C148.744 28.9037 148.443 28.8477 148.14 28.8518C146.9 28.8518 145.821 29.7347 145.821 31.1405C145.821 32.0907 146.386 32.9465 147.253 33.3105C148.12 33.6744 149.117 33.4722 149.78 32.801L150.814 33.669C150.473 34.0353 150.058 34.3259 149.598 34.5219C149.137 34.7179 148.64 34.8148 148.14 34.8065C146.176 34.8065 144.491 33.3549 144.491 31.1405ZM140.188 33.3226C140.186 33.2005 140.209 33.0792 140.254 32.9659C140.3 32.8525 140.367 32.7492 140.452 32.6618C140.538 32.5744 140.639 32.5047 140.752 32.4567C140.864 32.4087 140.985 32.3832 141.107 32.3818C141.229 32.3832 141.35 32.4087 141.462 32.4567C141.574 32.5047 141.676 32.5744 141.761 32.6618C141.847 32.7492 141.914 32.8525 141.959 32.9659C142.005 33.0792 142.027 33.2005 142.026 33.3226C142.014 33.5591 141.912 33.7822 141.741 33.9462C141.571 34.1103 141.344 34.203 141.107 34.2054C140.87 34.203 140.643 34.1103 140.472 33.9462C140.301 33.7822 140.2 33.5591 140.188 33.3226Z" fill="#FF913B"/>
<path fill-rule="evenodd" clip-rule="evenodd" d="M143.864 18.7972H139.078L135.723 27.4462L132.386 18.7972H127.6L133.418 32.4642L129.799 41.5H134.55L143.864 18.7972ZM114.756 26.399C114.756 28.5824 116.665 30.0192 118.54 30.0192C120.382 30.0192 122.192 28.6822 122.192 26.3976C122.192 24.113 120.382 22.7747 118.54 22.7747C116.665 22.7747 114.756 24.2128 114.756 26.3976V26.399ZM122.192 34.0303V32.3011C121.222 33.7702 118.957 34.3255 117.796 34.3255C113.949 34.3255 110.101 31.2929 110.101 26.3976C110.101 21.5037 113.948 18.471 117.796 18.471C118.765 18.471 121.029 18.7945 122.192 20.4928V18.8026H126.654V34.033L122.192 34.0317V34.0303ZM108.831 34.0303H104.37V32.138C103.625 33.5397 101.817 34.3565 99.941 34.3565C96.0606 34.3565 92.6331 31.2579 92.6331 26.4596C92.6331 21.571 96.0606 18.4683 99.941 18.4683C101.814 18.4683 103.627 19.2501 104.37 20.6532V10.5H108.831V34.0303ZM104.273 26.3639C104.273 24.0807 102.624 22.7423 100.782 22.7423C98.8735 22.7423 97.2884 24.1777 97.2884 26.3639C97.2884 28.6202 98.8735 30.0489 100.781 30.0489C102.658 30.0516 104.273 28.5501 104.273 26.3639ZM81.6024 25.9703C81.6024 23.6548 82.7993 22.8717 84.383 22.8717C85.902 22.8717 87.0018 23.8826 87.0018 25.9043V34.0277H91.4955V24.9271C91.4955 20.5898 89.3605 18.4683 85.9654 18.4683C84.1876 18.4683 82.4098 19.4792 81.6011 21.013V18.7972H77.1101V34.0277H81.6024V25.9703ZM67.9854 34.2891C63.7181 34.2891 60.1585 31.1581 60.1585 26.3626C60.1585 21.5643 63.7141 18.4643 67.9854 18.4643C72.2566 18.4643 75.8432 21.5643 75.8432 26.3626C75.8432 31.1608 72.2526 34.2905 67.9854 34.2905V34.2891ZM67.9854 29.8548C69.8588 29.8548 71.4129 28.4827 71.4129 26.3639C71.4129 24.3085 69.8602 22.9054 67.9854 22.9054C67.5339 22.8983 67.0858 22.9832 66.6682 23.1549C66.2507 23.3266 65.8724 23.5815 65.5566 23.9041C65.2389 24.2284 64.9896 24.6133 64.8236 25.0359C64.6576 25.4584 64.5782 25.9101 64.5902 26.3639C64.5915 28.4854 66.1429 29.8548 67.9854 29.8548ZM52.1026 22.873C53.4275 22.873 54.592 23.9176 54.592 25.9057V34.0303H59.0533V25.38C59.0533 20.7812 56.8173 18.4657 53.2334 18.4657C52.1686 18.4657 50.163 18.7891 48.7074 21.1721C47.8664 19.4105 46.2503 18.4967 43.862 18.4967C43.0327 18.4924 42.2199 18.7271 41.5205 19.1727C40.8211 19.6182 40.2649 20.2557 39.9182 21.009V18.7986H35.4219V34.029H39.9142V25.9703C39.9142 23.6548 41.1757 22.8717 42.533 22.8717C43.8269 22.8717 44.9887 23.8826 45.0224 25.8073V34.029H49.5161V25.9703C49.5161 23.7559 50.6806 22.8744 52.1026 22.8744V22.873Z" fill="#FF913B"/>
</g>
<defs>
<clipPath id="clip0_391_59">
<rect width="171" height="48" fill="white" transform="translate(0.5)"/>
</clipPath>
</defs>
</svg>
