<svg width="109" height="48" viewBox="0 0 109 48" fill="none" xmlns="http://www.w3.org/2000/svg">
<g clip-path="url(#clip0_391_86)">
<path d="M11.9922 29.3774C11.9922 30.0902 11.8415 30.7525 11.54 31.3649C11.2385 31.9688 10.8113 32.4885 10.2751 32.908C9.73066 33.3357 9.08577 33.6627 8.34 33.8974C7.59457 34.1321 6.77377 34.2496 5.88577 34.2496C4.82177 34.2496 3.86711 34.107 3.02977 33.8136C2.19217 33.5284 1.34622 33.042 0.5 32.3709L1.89911 30.098C2.56915 30.6599 3.172 31.0704 3.71689 31.3309C4.25297 31.5909 4.80577 31.7167 5.37555 31.7167C6.07075 31.7167 6.62355 31.5405 7.05111 31.18C7.47831 30.8193 7.67929 30.3414 7.67929 29.7293C7.67929 29.4694 7.6374 29.2262 7.56204 28.9998C7.48665 28.7733 7.34426 28.5385 7.14328 28.2953C6.94222 28.0606 6.65751 27.7922 6.29733 27.5155C5.94551 27.2387 5.48489 26.8865 4.91511 26.4755C4.48791 26.1736 4.0608 25.855 3.65022 25.536C3.23982 25.2089 2.87129 24.8651 2.52755 24.496C2.19253 24.127 1.92453 23.7161 1.71511 23.2551C1.51404 22.8023 1.40524 22.2737 1.40524 21.6951C1.40524 21.0242 1.54764 20.4035 1.824 19.8497C2.10035 19.296 2.48569 18.8266 2.97155 18.4328C3.45733 18.0387 4.03555 17.7368 4.72177 17.5191C5.40017 17.301 6.13689 17.192 6.94133 17.192C7.78729 17.192 8.6 17.301 9.38666 17.5275C10.174 17.7539 10.9031 18.0809 11.5813 18.5168L10.3164 20.5631C9.45377 19.9592 8.54044 19.6493 7.58577 19.6493C7.00782 19.6493 6.52177 19.8002 6.14488 20.1021C5.768 20.404 5.57528 20.7814 5.57528 21.2425C5.57528 21.6786 5.74284 22.0728 6.07786 22.4168C6.41289 22.7689 6.99075 23.247 7.81209 23.8843C8.64133 24.4881 9.32853 25.0248 9.86453 25.4772C10.409 25.93 10.8361 26.3661 11.1543 26.7688C11.4726 27.1713 11.682 27.5738 11.8076 27.9928C11.9332 28.4204 11.9922 28.8738 11.9922 29.3774ZM26.3567 25.5454C26.3567 26.1743 26.2897 26.8538 26.1557 27.5827C26.03 28.3123 25.8039 28.9836 25.4857 29.604C25.1674 30.2246 24.757 30.7365 24.2457 31.1303C23.7347 31.5328 23.0812 31.734 22.3026 31.734C20.9959 31.734 19.9657 31.2141 19.2119 30.166C18.458 29.126 18.0812 27.6922 18.0812 25.8727C18.0812 24.0024 18.4581 22.5269 19.2288 21.4282C19.991 20.3296 21.0297 19.7847 22.3363 19.7847C23.5763 19.7847 24.5559 20.3046 25.2759 21.3278C25.9962 22.3589 26.3567 23.7676 26.3567 25.5454ZM30.8962 25.386C30.8962 24.17 30.7203 23.0633 30.377 22.074C30.0251 21.0758 29.5394 20.2207 28.8943 19.4998C28.2494 18.7786 27.4952 18.2251 26.6161 17.8224C25.737 17.4198 24.7654 17.2187 23.7014 17.2187C22.529 17.2187 21.4987 17.4451 20.6107 17.8812C19.7229 18.3256 18.8934 19.0216 18.1396 19.9772L18.1146 17.6039H13.935V41.995H18.1066V31.6928C18.517 32.1707 18.9106 32.5732 19.2959 32.8999C19.6728 33.2269 20.0581 33.4952 20.4514 33.6965C20.845 33.8977 21.2554 34.0487 21.6906 34.1326C22.1261 34.2164 22.5954 34.2584 23.0897 34.2584C24.1954 34.2584 25.2337 34.0319 26.1883 33.5959C27.143 33.1514 27.9723 32.531 28.6674 31.7256C29.3626 30.9203 29.9074 29.9816 30.3012 28.9168C30.7033 27.843 30.8962 26.6607 30.8962 25.386ZM32.7558 33.8642H37.0438V9.99756H32.7558V33.8642ZM55.3336 33.8726V17.5881H51.0456V26.3508C51.0456 27.1307 51.0121 27.7348 50.945 28.1624C50.878 28.59 50.7691 28.9673 50.6184 29.3197C50.0153 30.661 48.901 31.341 47.285 31.341C46.0201 31.341 45.141 30.8882 44.6379 29.9739C44.437 29.6301 44.3029 29.236 44.2275 28.7997C44.1521 28.3637 44.1103 27.7348 44.1103 26.9046V17.589H39.8223V26.8424C39.8223 27.4712 39.8306 28.0077 39.8391 28.4352C39.8474 28.8629 39.881 29.257 39.9228 29.5926C39.9647 29.928 40.0149 30.2299 40.0736 30.4904C40.1238 30.7503 40.2076 31.0018 40.3165 31.2367C40.7101 32.2349 41.3387 32.9896 42.2178 33.5007C43.0973 34.0121 44.1778 34.2638 45.4507 34.2638C46.5983 34.2638 47.6116 34.0624 48.4827 33.66C49.3538 33.2575 50.2001 32.6031 51.0205 31.6893L51.0289 33.8697L55.3338 33.8781L55.3336 33.8726ZM73.8136 33.8642V24.6287C73.8136 23.9997 73.8052 23.4633 73.7968 23.0189C73.7884 22.5744 73.7634 22.1888 73.713 21.8616C73.6712 21.5344 73.6126 21.2494 73.5539 21.0062C73.4869 20.7546 73.4115 20.5114 73.3278 20.2766C72.9341 19.3041 72.3056 18.5495 71.4265 18.0206C70.5474 17.4917 69.4665 17.224 68.1847 17.224C67.0371 17.224 66.0238 17.4252 65.1527 17.8277C64.2816 18.2302 63.4354 18.8926 62.6149 19.7984L62.6066 17.6179H58.2928V33.8668H62.6146V25.0952C62.6146 24.3405 62.6397 23.745 62.6983 23.3255C62.7485 22.9062 62.8575 22.512 63.0082 22.1344C63.2846 21.4802 63.7202 20.9939 64.298 20.6588C64.8759 20.3237 65.5629 20.1557 66.3665 20.1557C67.6313 20.1557 68.5105 20.6085 69.0136 21.5228C69.2063 21.8666 69.3402 22.2608 69.4156 22.6881C69.491 23.1159 69.5329 23.753 69.5329 24.5752V33.8464L73.8129 33.8548L73.8136 33.8642ZM91.5558 32.7904L85.0233 24.6642L90.5425 18.7442L87.2927 17.3442L81.5469 24.0109H81.0946V10.002H76.7729V33.8687H81.0946V25.2233L87.5604 34.1922L91.5551 32.7913L91.5558 32.7904ZM108.258 26.954V24.2953L95.2625 17.7709V20.6971L105.334 25.6029L95.2625 30.5753V33.4349L108.258 26.954ZM96.5247 13.5496C95.7291 13.5496 95.0838 14.2036 95.0838 15.0091C95.0838 15.8309 95.7291 16.4767 96.5247 16.4767C97.3291 16.4767 97.9656 15.831 97.9656 15.0091C97.9656 14.1957 97.3291 13.5496 96.5247 13.5496ZM96.5336 13.776C97.178 13.776 97.6971 14.3294 97.6971 15.0168C97.6971 15.7045 97.178 16.2577 96.5336 16.2497C95.8802 16.2497 95.3602 15.7047 95.3602 15.0088C95.3602 14.3296 95.8802 13.776 96.5336 13.776ZM96.2571 15.16H96.4322C96.642 15.16 96.7425 15.2354 96.7842 15.4451C96.818 15.6632 96.8598 15.8057 96.8936 15.856H97.17C97.1442 15.8057 97.1025 15.7051 97.0696 15.4536C97.0358 15.2104 96.9434 15.0846 96.7931 15.0594V15.0426C96.9691 14.9923 97.1114 14.8582 97.1114 14.6485C97.1114 14.4976 97.0607 14.3802 96.9602 14.313C96.8598 14.2376 96.7007 14.1873 96.458 14.1873C96.2651 14.1873 96.1309 14.204 95.9976 14.2292V15.8559H96.2571V15.16ZM96.2571 14.4052C96.2989 14.3968 96.3576 14.3884 96.4411 14.3884C96.7345 14.3884 96.8349 14.531 96.8349 14.6736C96.8349 14.8748 96.65 14.9503 96.4411 14.9503H96.2571V14.4052Z" fill="#FF913B"/>
</g>
<defs>
<clipPath id="clip0_391_86">
<rect width="108" height="48" fill="white" transform="translate(0.5)"/>
</clipPath>
</defs>
</svg>
