<svg width="179" height="48" viewBox="0 0 179 48" fill="none" xmlns="http://www.w3.org/2000/svg">
<g clip-path="url(#clip0_391_33)">
<mask id="mask0_391_33" style="mask-type:luminance" maskUnits="userSpaceOnUse" x="0" y="0" width="179" height="48">
<path d="M178.5 0H0.5V48H178.5V0Z" fill="white"/>
</mask>
<g mask="url(#mask0_391_33)">
<path d="M6.94734 22.0334C6.88275 21.9489 6.79744 21.8825 6.69966 21.8406C6.60188 21.7986 6.49494 21.7827 6.38918 21.7941C6.28342 21.8056 6.18241 21.8442 6.09592 21.9062C6.00943 21.9681 5.94038 22.0513 5.89544 22.1477L0.565292 32.8047C0.516736 32.9018 0.493809 33.0097 0.498691 33.1182C0.503573 33.2267 0.5361 33.3321 0.593184 33.4245C0.650269 33.5169 0.730016 33.5931 0.824854 33.646C0.919692 33.6989 1.02647 33.7266 1.13506 33.7267H8.55702C8.67589 33.7294 8.793 33.6976 8.89415 33.6351C8.99529 33.5726 9.0761 33.482 9.12678 33.3745C10.7278 30.0662 9.75752 25.0359 6.94734 22.0334Z" fill="#FF913B"/>
<path d="M10.8564 12.3404C9.5283 14.384 8.75433 16.7377 8.61045 19.1707C8.46658 21.6036 8.95775 24.0322 10.0358 26.2181L13.614 33.3745C13.6669 33.4803 13.7482 33.5693 13.8488 33.6315C13.9494 33.6937 14.0654 33.7266 14.1837 33.7267H21.6043C21.7129 33.7266 21.8197 33.6989 21.9146 33.646C22.0094 33.5931 22.0891 33.5169 22.1462 33.4245C22.2033 33.3321 22.2358 33.2267 22.2407 33.1182C22.2456 33.0097 22.2227 32.9018 22.1741 32.8047C22.1741 32.8047 12.1909 12.8359 11.94 12.3364C11.8904 12.2347 11.8131 12.1491 11.7171 12.0894C11.621 12.0296 11.5101 11.9981 11.3969 11.9985C11.2838 11.999 11.1731 12.0313 11.0775 12.0917C10.9819 12.1522 10.9053 12.2384 10.8564 12.3404Z" fill="#FF913B"/>
<path d="M97.896 20.8856C97.896 23.5245 99.1203 25.6197 103.909 26.5446C106.766 27.1444 107.364 27.6055 107.364 28.5578C107.364 29.4828 106.765 30.0815 104.752 30.0815C102.32 30.0378 99.9367 29.3929 97.8145 28.2043V32.5025C99.2566 33.2099 101.161 33.9989 104.698 33.9989C109.704 33.9989 111.69 31.7665 111.69 28.4488L97.896 20.8856ZM111.69 28.4488C111.69 25.3201 110.031 23.8507 105.351 22.8445C102.767 22.273 102.141 21.7019 102.141 20.8856C102.141 19.8527 103.066 19.4165 104.78 19.4165C106.848 19.4165 108.888 20.0423 110.82 20.9129V16.8046C108.967 15.9616 106.95 15.5434 104.916 15.5804C100.29 15.5804 97.896 17.5936 97.896 20.8856" fill="#FF913B"/>
<path d="M162.209 15.8521V33.7267H166.018V20.0963L167.623 23.7145L173.01 33.7267H177.798V15.8521H173.989V27.3876L172.547 24.041L168.222 15.8521H162.209Z" fill="#FF913B"/>
<path d="M137.985 15.8521H133.822V33.7267H137.985V15.8521Z" fill="#FF913B"/>
<path d="M129.018 28.4483C129.018 25.3196 127.359 23.8502 122.679 22.8439C120.095 22.2725 119.469 21.7014 119.469 20.8851C119.469 19.8522 120.394 19.416 122.108 19.416C124.176 19.416 126.216 20.0417 128.148 20.9124V16.8041C126.296 15.9611 124.278 15.5428 122.244 15.5799C117.619 15.5799 115.225 17.5931 115.225 20.8851C115.225 23.524 116.449 25.6191 121.237 26.5441C124.094 27.1438 124.692 27.605 124.692 28.5573C124.692 29.4822 124.093 30.081 122.081 30.081C119.649 30.0372 117.265 29.3923 115.143 28.2037V32.502C116.585 33.2093 118.489 33.9984 122.026 33.9984C127.032 33.9984 129.018 31.7659 129.018 28.4483Z" fill="#FF913B"/>
<path d="M65.5605 15.8521V33.7267H74.1163L75.4634 29.8633H69.7502V15.8521H65.5605Z" fill="#FF913B"/>
<path d="M48.6562 15.8521V19.715H53.2813V33.7267H57.4711V19.715H62.4226V15.8521H48.6562Z" fill="#FF913B"/>
<path d="M42.5813 15.8521H37.0905L30.8574 33.7267H35.6175L36.5011 30.7162C38.6774 31.3552 40.9914 31.3552 43.1677 30.7162L44.0513 33.7267H48.8124L42.5813 15.8521ZM39.8357 27.4929C39.0604 27.4929 38.289 27.3819 37.545 27.1634L39.8357 19.3629L42.1265 27.166C41.3824 27.3836 40.611 27.4938 39.8357 27.4929Z" fill="#FF913B"/>
<path d="M88.8661 15.8521H83.3757L77.1426 33.7267H81.9036L82.7873 30.7162C84.9635 31.3552 87.2776 31.3552 89.4539 30.7162L90.3375 33.7267H95.0985L88.8661 15.8521ZM86.1209 27.4929C85.3455 27.4929 84.5741 27.3819 83.8302 27.1634L86.1209 19.3629L88.4116 27.166C87.6675 27.3836 86.8961 27.4938 86.1209 27.4929Z" fill="#FF913B"/>
<path d="M152.984 15.8521H147.493L141.26 33.7267H146.021L146.905 30.7162C149.081 31.3552 151.395 31.3552 153.572 30.7162L154.455 33.7267H159.217L152.984 15.8521ZM150.237 27.4929C149.462 27.4929 148.69 27.3819 147.946 27.1634L150.237 19.3629L152.528 27.166C151.784 27.3836 151.012 27.4938 150.237 27.4929Z" fill="#FF913B"/>
</g>
</g>
<defs>
<clipPath id="clip0_391_33">
<rect width="178" height="48" fill="white" transform="translate(0.5)"/>
</clipPath>
</defs>
</svg>
