<svg width="157" height="48" viewBox="0 0 157 48" fill="none" xmlns="http://www.w3.org/2000/svg">
<g clip-path="url(#clip0_391_74)">
<path d="M13.2808 26.1909C13.2808 23.5845 11.3204 21.7526 8.91229 21.7526C6.50421 21.7526 4.5438 23.6153 4.5438 26.1909C4.5438 28.7356 6.50421 30.6293 8.91229 30.6293C11.3228 30.6269 13.2808 28.7974 13.2808 26.1909ZM13.3152 33.9486V31.9313C12.1271 33.3285 10.3586 34.1957 8.24078 34.1957C3.84031 34.1957 0.5 30.7813 0.5 26.1909C0.5 21.629 3.96822 18.1553 8.33917 18.1553C10.3956 18.1553 12.1297 19.0249 13.3176 20.3888V18.4333H17.268V33.9486H13.3152Z" fill="#FF913B"/>
<path d="M36.4567 30.5035C35.0743 30.5035 34.6906 30.0068 34.6906 28.7048V21.8168H37.229V18.4334H34.6906V14.6484H30.6419V18.4334H25.4272V17.4901C25.4272 16.1857 25.9414 15.6891 27.3557 15.6891H28.2437V12.6787H26.2955C22.9552 12.6787 21.381 13.7337 21.381 16.9603V18.431H19.1328V21.8144H21.381V33.9463H25.4298V21.8144H30.6443V29.4176C30.6443 32.5824 31.8964 33.9487 35.1727 33.9487H37.261V30.5035H36.4567Z" fill="#FF913B"/>
<path d="M50.9762 24.7942C50.6883 22.7769 48.9838 21.5675 46.9938 21.5675C45.0014 21.5675 43.3633 22.7461 42.9476 24.7942H50.9762ZM42.9132 27.2153C43.2034 29.5105 44.9055 30.815 47.0578 30.815C48.7599 30.815 50.0784 30.038 50.8482 28.7977H54.9929C54.0287 32.0861 50.9762 34.196 46.9619 34.196C42.1113 34.196 38.707 30.9076 38.707 26.2221C38.707 21.5367 42.3057 18.1533 47.0602 18.1533C51.8469 18.1533 55.3151 21.5676 55.3151 26.2221C55.3151 26.5643 55.2831 26.9041 55.2192 27.2153H42.9132Z" fill="#FF913B"/>
<path d="M81.0557 26.1909C81.0557 23.6771 79.0953 21.7526 76.6872 21.7526C74.2792 21.7526 72.3187 23.6153 72.3187 26.1909C72.3187 28.7356 74.2792 30.6293 76.6872 30.6293C79.0953 30.6269 81.0557 28.7048 81.0557 26.1909ZM68.334 18.4333H72.2842V20.4505C73.4723 19.0225 75.2384 18.1553 77.3587 18.1553C81.6952 18.1553 85.0995 21.6005 85.0995 26.16C85.0995 30.7219 81.6312 34.198 77.2628 34.198C75.2384 34.198 73.5683 33.4211 72.4122 32.1191V40.3329H68.334V18.4333Z" fill="#FF913B"/>
<path d="M99.3394 26.1909C99.3394 23.5845 97.3814 21.7526 94.9707 21.7526C92.5627 21.7526 90.6023 23.6153 90.6023 26.1909C90.6023 28.7356 92.5627 30.6293 94.9707 30.6293C97.3814 30.6269 99.3394 28.7974 99.3394 26.1909ZM99.374 33.9486V31.9313C98.1859 33.3285 96.4169 34.1957 94.299 34.1957C89.8988 34.1957 86.5586 30.7813 86.5586 26.1909C86.5586 21.629 90.0268 18.1553 94.3953 18.1553C96.4515 18.1553 98.1859 19.0249 99.374 20.3888V18.4333H103.325V33.9486H99.374Z" fill="#FF913B"/>
<path d="M61.214 19.9539C61.214 19.9539 62.2201 18.1553 64.6822 18.1553C65.735 18.1553 66.4164 18.5046 66.4164 18.5046V22.463C66.4164 22.463 64.9306 21.5767 63.5655 21.7549C62.2003 21.9332 61.337 23.1449 61.3419 24.7653V33.9509H57.2637V18.4357H61.214V19.9539Z" fill="#FF913B"/>
<path d="M121.774 18.4336L111.8 40.2832H107.594L111.51 31.8366L104.889 18.4336H109.656L113.53 27.3887L117.505 18.4336H121.774Z" fill="#FF913B"/>
<path d="M153.615 18.0818L143.727 12.5695C140.824 10.9515 137.196 12.9735 137.196 16.2119V16.7774C137.196 17.2883 137.478 17.7611 137.936 18.0153L139.803 19.056C140.351 19.3625 141.035 18.98 141.035 18.3693V16.9627C141.035 16.2595 141.823 15.8199 142.452 16.1715L151.017 20.9473C151.647 21.2989 151.647 22.1781 151.017 22.5274L142.452 27.3031C141.823 27.6548 141.035 27.2152 141.035 26.5119V25.7634C141.035 22.5249 137.407 20.5006 134.503 22.121L124.615 27.6333C121.712 29.2514 121.712 33.3001 124.615 34.9181L134.503 40.4305C137.405 42.0485 141.035 40.0265 141.035 36.7881V36.2226C141.035 35.7117 140.753 35.2413 140.295 34.9846L138.428 33.9416C137.88 33.6351 137.196 34.0176 137.196 34.6283V36.0349C137.196 36.7382 136.409 37.1777 135.779 36.8261L127.214 32.0503C126.585 31.6987 126.585 30.8196 127.214 30.4679L135.779 25.6921C136.409 25.3405 137.196 25.78 137.196 26.4833V27.2318C137.196 30.4703 140.824 32.4947 143.727 30.8742L153.615 25.3619C156.517 23.7486 156.517 19.6999 153.615 18.0818Z" fill="#FF913B"/>
</g>
<defs>
<clipPath id="clip0_391_74">
<rect width="156" height="48" fill="white" transform="translate(0.5)"/>
</clipPath>
</defs>
</svg>
