<svg width="118" height="48" viewBox="0 0 118 48" fill="none" xmlns="http://www.w3.org/2000/svg">
<g clip-path="url(#clip0_391_83)">
<path d="M35.6867 20.6688H24.9677L34.2504 15.3372L32.4096 12.1638L23.1257 17.4955L28.4841 8.26132L25.2949 6.42965L19.9354 15.6615V5.00049H16.2514V15.6627L10.8919 6.42965L7.70149 8.26132L13.0598 17.4932L3.77831 12.1638L1.93631 15.3372L11.219 20.6688H0.5V24.3333H11.2178L1.93631 29.665L3.77714 32.8383L13.061 27.5067L7.70149 36.7408L10.8907 38.5725L16.2514 29.3395V40.0005H19.9354V29.1108L25.3933 38.5142L28.3844 36.7968L22.9252 27.3912L32.4072 32.8372L34.2492 29.6638L24.9677 24.3322H35.6855V20.6688H35.6867ZM18.0934 27.4822C17.4357 27.4822 16.7845 27.3534 16.1769 27.1031C15.5693 26.8527 15.0172 26.4858 14.5522 26.0231C14.0871 25.5605 13.7182 25.0112 13.4664 24.4067C13.2147 23.8022 13.0851 23.1543 13.085 22.4999C13.0849 21.8456 13.2144 21.1976 13.466 20.593C13.7176 19.9884 14.0864 19.4391 14.5513 18.9763C15.0163 18.5136 15.5683 18.1465 16.1758 17.896C16.7834 17.6455 17.4346 17.5166 18.0922 17.5165C19.4203 17.5163 20.6941 18.0412 21.6334 18.9755C22.5726 19.9099 23.1004 21.1772 23.1005 22.4987C23.1007 23.8203 22.5732 25.0877 21.6342 26.0223C20.6952 26.9569 19.4215 27.482 18.0934 27.4822Z" fill="#FF913B"/>
<path d="M45.1836 35.3023V9.69873H49.9064V35.3023H45.1836ZM90.4808 17.9027H94.9902V20.026C95.9493 18.3285 98.1876 17.408 100.105 17.408C102.484 17.408 104.401 18.4347 105.289 20.3072C106.673 18.1839 108.52 17.408 110.829 17.408C114.06 17.408 117.149 19.3529 117.149 24.0207V35.3023H112.569V24.9762C112.569 23.1014 111.645 21.6862 109.478 21.6862C107.453 21.6862 106.246 23.2437 106.246 25.1185V35.3035H101.56V24.9762C101.56 23.1014 100.601 21.6862 98.4702 21.6862C96.4101 21.6862 95.2025 23.2087 95.2025 25.1185V35.3035H90.4808V17.9027ZM60.5797 35.8064C55.2589 35.8064 51.4061 31.8782 51.4061 26.6025C51.4061 21.4109 55.2472 17.3905 60.5797 17.3905C65.938 17.3905 69.7533 21.4482 69.7533 26.6025C69.7533 31.8409 65.8982 35.8064 60.5797 35.8064ZM60.5797 21.6489C59.2599 21.6507 57.9948 22.1734 57.0619 23.1023C56.129 24.0313 55.6045 25.2905 55.6036 26.6037C55.6045 27.9169 56.129 29.1761 57.0619 30.105C57.9948 31.0339 59.2599 31.5567 60.5797 31.5585C61.8993 31.5564 63.1641 31.0335 64.0968 30.1046C65.0294 29.1757 65.5537 27.9167 65.5546 26.6037C65.5537 25.2907 65.0294 24.0316 64.0968 23.1028C63.1641 22.1739 61.8993 21.651 60.5797 21.6489ZM79.8404 35.8064C74.5196 35.8064 70.6667 31.8782 70.6667 26.6025C70.6667 21.4109 74.5078 17.3905 79.8404 17.3905C85.1987 17.3905 89.014 21.4482 89.014 26.6025C89.014 31.8409 85.1565 35.8064 79.8404 35.8064ZM79.8404 21.5894C78.5054 21.5915 77.2259 22.1204 76.2823 23.0599C75.3387 23.9995 74.8081 25.2731 74.8068 26.6013C74.8081 27.9296 75.3387 29.2032 76.2823 30.1428C77.2259 31.0823 78.5054 31.6112 79.8404 31.6133C81.1753 31.6112 82.4549 31.0823 83.3985 30.1428C84.3421 29.2032 84.8727 27.9296 84.8739 26.6013C84.8727 25.2731 84.3421 23.9995 83.3985 23.0599C82.4549 22.1204 81.1753 21.5915 79.8404 21.5894Z" fill="#FF913B"/>
</g>
<defs>
<clipPath id="clip0_391_83">
<rect width="117" height="48" fill="white" transform="translate(0.5)"/>
</clipPath>
</defs>
</svg>
