<svg width="128" height="48" viewBox="0 0 128 48" fill="none" xmlns="http://www.w3.org/2000/svg">
<g clip-path="url(#clip0_391_67)">
<path fill-rule="evenodd" clip-rule="evenodd" d="M123.457 31.9805C123.533 32.8501 124.228 33.9569 125.434 33.9569H126.138C126.412 33.9569 126.636 33.7329 126.636 33.4594V17.9537H126.633C126.619 17.6924 126.403 17.4832 126.138 17.4832H123.954C123.69 17.4832 123.474 17.6924 123.46 17.9537H123.457V19.2136C122.118 17.5637 120.008 16.8789 117.892 16.8789C113.081 16.8789 109.182 20.7813 109.182 25.5955C109.182 30.4101 113.081 34.3126 117.892 34.3126C120.008 34.3126 122.315 33.4913 123.457 31.9786V31.9805ZM117.9 31.2619C114.841 31.2619 112.361 28.7252 112.361 25.5955C112.361 22.4665 114.841 19.9297 117.9 19.9297C120.96 19.9297 123.44 22.4665 123.44 25.5955C123.44 28.7252 120.96 31.2619 117.9 31.2619Z" fill="#FF913B"/>
<path fill-rule="evenodd" clip-rule="evenodd" d="M106.42 24.49C106.42 19.9672 103.569 16.916 99.0229 16.916C96.8525 16.916 95.0734 18.172 94.445 19.2509C94.3092 18.4073 93.8617 17.5205 92.4739 17.5205H91.7665C91.4929 17.5205 91.2695 17.7447 91.2695 18.0182V32.0191V32.0213V33.5252H91.2722C91.2865 33.786 91.5025 33.9955 91.7667 33.9955H93.9514C93.9848 33.9955 94.0176 33.9915 94.0493 33.9854C94.0638 33.9825 94.0772 33.9768 94.0913 33.9729C94.1075 33.9679 94.1245 33.964 94.1399 33.9576C94.1593 33.9496 94.177 33.9388 94.195 33.9287C94.2039 33.9232 94.2132 33.9194 94.2217 33.9138C94.2435 33.8997 94.2635 33.8827 94.2829 33.8655C94.286 33.8623 94.2898 33.8601 94.293 33.8572C94.3147 33.8362 94.3346 33.813 94.3521 33.7889C94.4067 33.7138 94.4401 33.6229 94.4456 33.5252H94.4484V24.3656C94.4484 21.9365 96.4163 19.9672 98.8437 19.9672C101.271 19.9672 103.239 21.9365 103.239 24.3656L103.241 32.0218V32.0191C103.241 32.0259 103.243 32.0329 103.243 32.0401V33.5252H103.245C103.26 33.786 103.476 33.9955 103.74 33.9955H105.925C105.958 33.9955 105.991 33.9915 106.022 33.9854C106.035 33.983 106.047 33.9777 106.06 33.9742C106.078 33.969 106.096 33.9646 106.113 33.9576C106.131 33.9502 106.148 33.9399 106.164 33.9304C106.175 33.9246 106.186 33.9204 106.195 33.9138C106.216 33.9005 106.234 33.8844 106.252 33.8687C106.257 33.8643 106.262 33.8612 106.266 33.8568C106.287 33.8368 106.306 33.8152 106.322 33.7926C106.324 33.7909 106.326 33.7879 106.326 33.7879C106.38 33.7134 106.413 33.6235 106.419 33.5265V33.5252H106.422L106.42 24.49Z" fill="#FF913B"/>
<path fill-rule="evenodd" clip-rule="evenodd" d="M83.6673 31.9805C83.7437 32.85 84.4393 33.9568 85.6443 33.9568H86.3493C86.6226 33.9568 86.8463 33.7329 86.8463 33.4593V17.9537H86.8435C86.8293 17.6924 86.6131 17.4832 86.3493 17.4832H84.1646C83.9004 17.4832 83.6846 17.6924 83.6698 17.9537H83.6673V19.2136C82.3287 17.5637 80.2184 16.8789 78.1021 16.8789C73.2919 16.8789 69.3926 20.7813 69.3926 25.5956C69.3926 30.41 73.2919 34.3126 78.1021 34.3126C80.2184 34.3126 82.5247 33.4914 83.6671 31.9785L83.6673 31.9805ZM78.1106 31.2618C75.0515 31.2618 72.5713 28.7252 72.5713 25.5956C72.5713 22.4665 75.0515 19.9297 78.1106 19.9297C81.1701 19.9297 83.6498 22.4665 83.6498 25.5956C83.6498 28.7252 81.1701 31.2618 78.1106 31.2618Z" fill="#FF913B"/>
<path fill-rule="evenodd" clip-rule="evenodd" d="M56.4739 29.7596C57.9323 30.7707 59.5242 31.2618 61.054 31.2618C62.5114 31.2618 64.0181 30.5057 64.0181 29.1896C64.0181 27.4325 60.735 27.1591 58.6723 26.4575C56.6091 25.7559 54.8322 24.3055 54.8322 21.9568C54.8322 18.3628 58.0321 16.8784 61.0187 16.8784C62.9109 16.8784 64.8633 17.5029 66.1291 18.3975C66.565 18.728 66.2996 19.1075 66.2996 19.1075L65.0913 20.8346C64.9555 21.0291 64.718 21.1972 64.3772 20.9866C64.0363 20.7762 62.8407 19.9293 61.0187 19.9293C59.1964 19.9293 58.0988 20.7715 58.0988 21.8153C58.0988 23.067 59.5254 23.4607 61.1963 23.8874C64.1082 24.6729 67.2847 25.6171 67.2847 29.1896C67.2847 32.3561 64.325 34.3131 61.054 34.3131C58.5752 34.3131 56.4648 33.6059 54.6948 32.306C54.326 31.9367 54.5835 31.5938 54.5835 31.5938L55.7859 29.8755C56.0306 29.5542 56.339 29.6663 56.4739 29.7596Z" fill="#FF913B"/>
<path fill-rule="evenodd" clip-rule="evenodd" d="M48.0757 31.9805C48.152 32.85 48.8476 33.9568 50.0525 33.9568H50.7576C51.0309 33.9568 51.2549 33.7329 51.2549 33.4593V17.9537H51.2518C51.2375 17.6924 51.0217 17.4832 50.7576 17.4832H48.573C48.3088 17.4832 48.093 17.6924 48.0783 17.9537H48.0757V19.2136C46.7372 17.5637 44.6268 16.8789 42.5106 16.8789C37.7003 16.8789 33.8008 20.7813 33.8008 25.5956C33.8008 30.41 37.7003 34.3126 42.5106 34.3126C44.6268 34.3126 46.9331 33.4914 48.0753 31.9785L48.0757 31.9805ZM42.5191 31.2618C39.4598 31.2618 36.9797 28.7252 36.9797 25.5956C36.9797 22.4665 39.4598 19.9297 42.5191 19.9297C45.5783 19.9297 48.0582 22.4665 48.0582 25.5956C48.0582 28.7252 45.5783 31.2618 42.5191 31.2618Z" fill="#FF913B"/>
<path fill-rule="evenodd" clip-rule="evenodd" d="M21.5895 26.1881C18.3525 26.1881 15.7282 28.8123 15.7282 32.0497C15.7282 35.2868 18.3525 37.911 21.5895 37.911C24.8267 37.911 27.4509 35.2868 27.4509 32.0497C27.4509 28.8123 24.8267 26.1881 21.5895 26.1881ZM6.36134 26.1886C3.12424 26.1886 0.5 28.8123 0.5 32.0497C0.5 35.2868 3.12424 37.911 6.36134 37.911C9.59858 37.911 12.223 35.2868 12.223 32.0497C12.223 28.8123 9.59858 26.1886 6.36134 26.1886ZM19.8367 18.8612C19.8367 22.0986 17.2126 24.7231 13.9755 24.7231C10.7382 24.7231 8.11414 22.0986 8.11414 18.8612C8.11414 15.6245 10.7382 13 13.9755 13C17.2126 13 19.8367 15.6245 19.8367 18.8612Z" fill="#FF913B"/>
</g>
<defs>
<clipPath id="clip0_391_67">
<rect width="127" height="48" fill="white" transform="translate(0.5)"/>
</clipPath>
</defs>
</svg>
