<svg width="100" height="100" viewBox="0 0 100 100" fill="none" xmlns="http://www.w3.org/2000/svg">
<path d="M88 50.8636C88 48.1691 87.7565 45.5782 87.3043 43.0909H51.2653V57.8073H71.859C70.9545 62.54 68.2412 66.5473 64.1712 69.2418V78.8109H76.59C83.8256 72.1782 88 62.4364 88 50.8636Z" fill="#FF913B"/>
<path d="M51.2653 88C61.5969 88 70.2588 84.6145 76.59 78.8109L64.1712 69.2418C60.7621 71.5218 56.4137 72.9036 51.2653 72.9036C41.3163 72.9036 32.8632 66.2364 29.8367 57.2545H17.1048V67.0655C23.4012 79.4673 36.3071 88 51.2653 88Z" fill="white"/>
<path d="M29.8367 57.22C29.0714 54.94 28.6192 52.5218 28.6192 50C28.6192 47.4782 29.0714 45.06 29.8367 42.78V32.9691H17.1048C14.4958 38.0818 13 43.8509 13 50C13 56.1491 14.4958 61.9182 17.1048 67.0309L27.019 59.3618L29.8367 57.22Z" fill="#FF913B"/>
<path d="M51.2653 27.1309C56.9007 27.1309 61.91 29.0655 65.9105 32.7964L76.8683 21.9145C70.224 15.7655 61.5969 12 51.2653 12C36.3071 12 23.4012 20.5327 17.1048 32.9691L29.8367 42.78C32.8632 33.7982 41.3163 27.1309 51.2653 27.1309Z" fill="white"/>
</svg>
