<svg width="100" height="100" viewBox="0 0 100 100" fill="none" xmlns="http://www.w3.org/2000/svg">
<path d="M68.3327 31.6665H68.366M33.3327 16.6665H66.666C75.8708 16.6665 83.3327 24.1284 83.3327 33.3332V66.6665C83.3327 75.8713 75.8708 83.3332 66.666 83.3332H33.3327C24.1279 83.3332 16.666 75.8713 16.666 66.6665V33.3332C16.666 24.1284 24.1279 16.6665 33.3327 16.6665ZM63.3327 47.8998C63.7441 50.674 63.2702 53.5072 61.9785 55.9966C60.6869 58.4859 58.6432 60.5045 56.1381 61.7654C53.633 63.0263 50.7942 63.4652 48.0253 63.0196C45.2564 62.5741 42.6986 61.2668 40.7155 59.2837C38.7324 57.3006 37.4251 54.7428 36.9796 51.9739C36.534 49.205 36.9729 46.3662 38.2338 43.8611C39.4946 41.356 41.5133 39.3123 44.0026 38.0206C46.492 36.729 49.3252 36.2551 52.0994 36.6665C54.9291 37.0861 57.5489 38.4047 59.5717 40.4275C61.5945 42.4503 62.9131 45.0701 63.3327 47.8998Z" stroke="url(#paint0_linear_416_215)" stroke-width="8" stroke-linecap="round" stroke-linejoin="round"/>
<defs>
<linearGradient id="paint0_linear_416_215" x1="75.5066" y1="16.9564" x2="3.62253" y2="102.753" gradientUnits="userSpaceOnUse">
<stop offset="0.202352" stop-color="white"/>
<stop offset="1" stop-color="#FF913B"/>
</linearGradient>
</defs>
</svg>
