<svg width="100" height="100" viewBox="0 0 100 100" fill="none" xmlns="http://www.w3.org/2000/svg">
<path d="M42.4695 41.0457V37.6805C41.4422 37.5265 40.3978 37.4302 39.3191 37.4302C26.4611 37.4112 16 49.1615 16 63.6237C16 72.4894 19.9379 80.336 25.9646 85.0862C22.078 80.413 19.6982 74.1241 19.6982 67.2392C19.6982 52.9885 29.8682 41.3727 42.4695 41.0457Z" fill="#FF913B"/>
<path d="M43.0314 79.1952C48.7671 79.1952 53.4583 74.0606 53.6638 67.6757L53.681 10.6155H62.9606C62.7722 9.44241 62.6696 8.23083 62.6696 7H49.9998L49.9826 64.0601C49.7773 70.445 45.0859 75.5797 39.3504 75.5797C37.5698 75.5797 35.8919 75.0797 34.4023 74.195C36.3199 77.2143 39.4702 79.1952 43.0314 79.1952Z" fill="#FF913B"/>
<path d="M80.3082 29.9864V26.8134C76.7642 26.8134 73.4768 25.6402 70.7031 23.6016C73.1685 26.7749 76.5072 29.0828 80.3082 29.9864Z" fill="#FF913B"/>
<path d="M70.7059 23.5925C68.0007 20.1117 66.3742 15.5731 66.3742 10.6113H62.9844C63.8574 16.0346 66.7339 20.6887 70.7059 23.5925Z" fill="#3EC1D3"/>
<path d="M39.335 51.6384C33.4624 51.6384 28.6855 57.0041 28.6855 63.6004C28.6855 68.1969 31.014 72.1969 34.404 74.1971C33.1371 72.2354 32.3837 69.8316 32.3837 67.216C32.3837 60.6196 37.1605 55.2539 43.0333 55.2539C44.129 55.2539 45.1904 55.4654 46.1835 55.8116V41.2727C45.1561 41.1187 44.1118 41.0225 43.0333 41.0225C42.8448 41.0225 42.6736 41.0417 42.4853 41.0417V52.1961C41.4751 51.8498 40.4307 51.6384 39.335 51.6384Z" fill="#3EC1D3"/>
<path d="M80.302 29.9766V41.0347C73.7273 41.0347 67.6322 38.6693 62.6669 34.669V63.6126C62.6669 78.0555 52.206 89.8254 39.3307 89.8254C34.3655 89.8254 29.7428 88.0559 25.959 85.0751C30.2222 90.2098 36.3002 93.4409 43.029 93.4409C55.8869 93.4409 66.3652 81.6903 66.3652 67.2282V38.2846C71.3303 42.2849 77.4254 44.6502 84 44.6502V30.4191C82.7159 30.4191 81.4832 30.265 80.302 29.9766Z" fill="#3EC1D3"/>
<path d="M62.6754 63.6134V34.6699C67.6408 38.6702 73.7359 41.0355 80.3105 41.0355V29.9774C76.5095 29.0737 73.1709 26.7659 70.7055 23.5925C66.7332 20.6887 63.8741 16.0346 62.9665 10.6113H53.6868L53.6697 67.6712C53.4644 74.0561 48.773 79.191 43.0375 79.191C39.4762 79.191 36.343 77.2102 34.3912 74.2101C31.0012 72.1907 28.6727 68.21 28.6727 63.6134C28.6727 57.0171 33.4495 51.6514 39.3221 51.6514C40.4179 51.6514 41.4794 51.8629 42.4724 52.2091V41.0548C29.8712 41.3625 19.7012 52.9783 19.7012 67.229C19.7012 74.1138 22.081 80.3835 25.9675 85.076C29.7513 88.0568 34.3741 89.8262 39.3392 89.8262C52.1974 89.8262 62.6754 78.0564 62.6754 63.6134Z" fill="white"/>
</svg>
