<svg width="100" height="100" viewBox="0 0 100 100" fill="none" xmlns="http://www.w3.org/2000/svg">
<path d="M88.6462 29.5398C88.2106 27.7997 87.3235 26.2053 86.0746 24.9177C84.8256 23.6301 83.2589 22.6948 81.5328 22.2065C75.2262 20.6665 49.9995 20.6665 49.9995 20.6665C49.9995 20.6665 24.7728 20.6665 18.4662 22.3532C16.7401 22.8415 15.1734 23.7767 13.9244 25.0643C12.6755 26.3519 11.7884 27.9463 11.3528 29.6865C10.1986 36.0869 9.63402 42.5796 9.66616 49.0832C9.62502 55.6357 10.1896 62.1779 11.3528 68.6265C11.833 70.3126 12.7399 71.8464 13.986 73.0796C15.2321 74.3128 16.7752 75.2038 18.4662 75.6665C24.7728 77.3532 49.9995 77.3532 49.9995 77.3532C49.9995 77.3532 75.2262 77.3532 81.5328 75.6665C83.2589 75.1782 84.8256 74.243 86.0746 72.9553C87.3235 71.6677 88.2106 70.0733 88.6462 68.3332C89.7915 61.981 90.356 55.5377 90.3328 49.0832C90.374 42.5307 89.8093 35.9884 88.6462 29.5398Z" stroke="url(#paint0_linear_416_233)" stroke-width="7" stroke-linecap="round" stroke-linejoin="round"/>
<path d="M41.7495 61.0732L62.8328 49.0832L41.7495 37.0932V61.0732Z" stroke="url(#paint1_linear_416_233)" stroke-width="7" stroke-linecap="round" stroke-linejoin="round"/>
<defs>
<linearGradient id="paint0_linear_416_233" x1="27.7132" y1="76.8568" x2="84.856" y2="24.8568" gradientUnits="userSpaceOnUse">
<stop stop-color="white"/>
<stop offset="1" stop-color="#FF913B"/>
</linearGradient>
<linearGradient id="paint1_linear_416_233" x1="27.7132" y1="76.8568" x2="84.856" y2="24.8568" gradientUnits="userSpaceOnUse">
<stop stop-color="white"/>
<stop offset="1" stop-color="#FF913B"/>
</linearGradient>
</defs>
</svg>
